<?xml version="1.0" standalone="no"?>
<!DOCTYPE svg PUBLIC "-//W3C//DTD SVG 20010904//EN"
 "http://www.w3.org/TR/2001/REC-SVG-20010904/DTD/svg10.dtd">
<svg version="1.0" xmlns="http://www.w3.org/2000/svg"
 width="2046.000000pt" height="2046.000000pt" viewBox="0 0 2046.000000 2046.000000"
 preserveAspectRatio="xMidYMid meet">
<metadata>
Created by potrace 1.14, written by Peter Selinger 2001-2017
</metadata>
<g transform="translate(0.000000,2046.000000) scale(0.100000,-0.100000)"
fill="#000000" stroke="none">
<path d="M15684 20439 c-9 -16 177 -379 386 -754 76 -135 216 -353 360 -560
36 -52 153 -281 225 -440 12 -27 36 -79 53 -115 26 -58 243 -538 277 -615 7
-16 25 -57 40 -90 15 -33 52 -116 82 -185 30 -69 63 -143 73 -165 75 -167 268
-612 454 -1050 139 -326 142 -333 169 -395 9 -20 40 -96 70 -170 54 -134 68
-167 92 -225 56 -132 223 -605 337 -955 38 -118 83 -255 99 -305 46 -138 119
-391 139 -478 l18 -79 -116 6 c-65 4 -137 8 -162 11 -25 2 -79 7 -120 10 -41
4 -95 9 -120 11 -25 2 -72 6 -105 10 -33 3 -76 8 -95 9 -64 5 -164 16 -200 20
-34 5 -66 8 -200 20 -36 3 -81 12 -100 20 -19 8 -132 51 -250 95 -118 44 -224
85 -235 90 -20 9 -251 97 -380 144 -38 15 -79 30 -90 35 -11 6 -184 73 -385
150 -201 77 -415 160 -477 185 -62 24 -136 49 -165 55 -29 6 -64 13 -78 15
-48 11 -75 16 -105 21 -16 3 -41 7 -55 10 -22 4 -185 34 -275 50 -60 10 -571
97 -600 102 -89 14 -322 56 -405 74 -191 40 -233 65 -204 120 27 53 73 114
174 234 56 66 107 127 113 135 24 31 115 158 169 235 69 98 112 144 138 147
11 1 35 3 53 4 17 1 66 -7 107 -18 114 -31 559 -200 798 -304 82 -35 105 -45
222 -95 69 -28 203 -85 298 -125 138 -58 186 -74 242 -79 38 -3 77 -8 87 -9
10 -2 61 -7 113 -11 52 -4 103 -9 113 -11 9 -1 52 -6 95 -9 42 -4 93 -8 112
-10 19 -3 91 -7 160 -11 114 -6 130 -4 185 16 45 17 90 24 182 27 105 5 123 8
128 23 3 10 20 44 38 76 17 33 50 109 72 170 44 118 44 125 6 209 -5 11 -23
58 -41 105 -18 47 -36 94 -40 105 -13 30 -149 381 -176 452 -12 34 -29 77 -37
95 -8 18 -30 71 -48 118 -32 84 -141 339 -194 455 -59 130 -226 487 -235 503
-5 9 -114 231 -244 492 -280 566 -368 735 -501 960 -62 106 -83 130 -254 300
-259 258 -681 640 -706 640 -4 0 -4 -12 -1 -26 11 -41 339 -915 376 -999 5
-11 24 -60 43 -110 94 -246 545 -1395 582 -1480 7 -16 32 -77 55 -135 64 -160
165 -363 239 -480 l66 -105 0 -85 c0 -74 -4 -121 -19 -205 -3 -21 -31 -25 -86
-13 -45 10 -342 86 -485 123 -77 20 -147 38 -155 40 -8 2 -157 42 -330 89
-351 95 -735 192 -795 202 -22 3 -43 8 -46 10 -4 2 -29 4 -57 5 -44 2 -57 -3
-104 -37 -29 -21 -55 -41 -58 -44 -3 -3 -104 -80 -225 -170 -121 -91 -222
-167 -225 -170 -3 -4 -88 -69 -190 -145 -264 -198 -304 -229 -315 -238 -41
-33 -274 -207 -387 -287 -143 -102 -219 -145 -241 -137 -18 7 -53 225 -72 442
-3 39 -8 86 -10 105 -2 19 -7 60 -10 90 -2 30 -7 82 -10 114 -6 55 -21 92 -90
208 -60 101 -181 316 -183 326 -2 6 -8 12 -13 12 -5 0 -9 4 -9 10 0 5 -37 72
-83 147 -110 183 -134 220 -145 227 -17 10 -20 -52 -17 -304 4 -272 9 -394 32
-730 10 -159 9 -318 -2 -329 -11 -11 -107 33 -260 121 -44 25 -98 55 -120 66
l-41 20 -29 -23 c-17 -13 -82 -65 -145 -116 -63 -51 -117 -95 -120 -98 -3 -3
-50 -42 -104 -86 -55 -44 -111 -90 -126 -102 -22 -18 -44 -22 -141 -28 -63 -3
-139 -8 -170 -10 -313 -22 -551 -24 -631 -5 -84 20 -173 69 -464 258 -150 97
-283 182 -294 188 -17 9 -34 6 -88 -14 -37 -13 -136 -48 -219 -77 l-153 -53
-2 26 c-2 15 -3 298 -3 629 0 546 -2 604 -16 619 -34 34 -101 -10 -186 -121
-40 -53 -173 -263 -173 -275 0 -4 -3 -10 -7 -12 -5 -1 -32 -43 -61 -91 -47
-78 -54 -97 -57 -150 -5 -99 -15 -303 -20 -412 -8 -163 -23 -379 -30 -417 -2
-9 -7 -37 -10 -62 -4 -25 -13 -46 -19 -46 -13 0 -231 184 -450 380 -28 25 -77
69 -111 99 -106 95 -129 115 -190 166 -33 28 -67 57 -75 65 -8 8 -42 37 -75
65 -33 27 -65 55 -71 60 -6 6 -31 27 -54 46 -23 18 -47 39 -54 44 -28 26 -196
154 -236 181 -81 55 -101 59 -280 59 -148 0 -289 -8 -345 -19 -11 -2 -41 -6
-66 -10 -175 -26 -528 -119 -729 -193 -242 -90 -817 -280 -888 -294 -78 -16
-88 -8 -96 76 -3 33 -9 85 -13 115 -4 30 -8 84 -8 120 1 66 17 111 83 220 97
160 236 464 386 845 59 149 111 279 115 291 5 11 55 144 111 295 56 150 105
283 110 294 5 11 27 72 50 135 23 63 50 138 60 165 61 165 241 661 343 950
135 380 152 461 106 485 -18 10 -28 4 -83 -52 -76 -77 -150 -175 -426 -563
-117 -165 -229 -322 -249 -350 -107 -147 -431 -643 -431 -660 0 -2 -15 -28
-34 -57 -18 -29 -49 -82 -68 -118 -20 -36 -62 -114 -95 -175 -87 -158 -128
-236 -193 -360 -172 -329 -221 -423 -292 -560 -120 -228 -217 -427 -222 -455
-3 -14 -72 -225 -154 -470 -81 -245 -158 -479 -170 -520 -58 -207 -61 -370 -8
-466 13 -23 26 -62 30 -86 12 -79 91 -152 197 -182 82 -23 105 -26 224 -26
105 0 134 2 224 14 23 3 60 8 84 11 23 3 67 10 97 15 30 5 73 12 95 14 22 3
74 11 115 16 41 6 95 13 120 16 74 9 126 23 182 48 29 14 215 93 413 176 198
83 369 155 380 160 29 13 126 53 345 140 209 84 305 113 344 106 79 -14 165
-73 301 -205 275 -268 431 -473 417 -546 -10 -53 -78 -84 -317 -145 -82 -21
-161 -41 -175 -44 -71 -14 -282 -60 -425 -92 -38 -9 -82 -17 -97 -19 -15 -2
-44 -8 -65 -14 -32 -8 -142 -32 -218 -47 -11 -2 -42 -8 -70 -14 -27 -6 -61
-12 -75 -15 -14 -3 -36 -7 -50 -10 -53 -11 -78 -16 -170 -35 -52 -11 -106 -22
-120 -25 -14 -3 -38 -8 -55 -11 -16 -3 -46 -9 -65 -14 -19 -5 -50 -12 -69 -15
-73 -13 -334 -68 -491 -105 -227 -53 -336 -90 -535 -180 -93 -43 -217 -98
-275 -123 -339 -144 -945 -339 -1250 -402 -147 -31 -212 -38 -335 -39 l-100
-1 1 115 c0 63 4 132 7 153 4 20 10 54 13 75 3 20 10 44 14 52 4 8 8 18 8 23
1 25 86 322 109 377 3 8 7 20 9 25 3 12 61 171 111 305 78 210 267 677 310
770 10 19 18 40 19 45 6 23 353 804 457 1025 19 41 65 140 102 220 37 80 84
181 105 225 21 44 49 105 63 135 14 30 42 91 62 135 68 147 242 539 315 710
40 94 80 188 90 210 10 22 48 112 85 200 133 320 264 582 527 1050 123 221
298 594 337 719 39 125 24 148 -61 93 -108 -70 -233 -194 -466 -464 -51 -59
-89 -104 -248 -294 -107 -128 -265 -321 -299 -363 -118 -151 -150 -192 -155
-196 -8 -6 -158 -205 -186 -245 -11 -16 -81 -118 -155 -225 -319 -460 -885
-1309 -973 -1460 -37 -63 -73 -126 -81 -140 -20 -34 -214 -425 -260 -525 -21
-44 -52 -111 -70 -150 -35 -76 -138 -301 -160 -350 -7 -16 -28 -61 -45 -100
-60 -133 -172 -380 -192 -425 -11 -25 -31 -70 -45 -100 -14 -30 -70 -154 -125
-275 -94 -207 -110 -243 -160 -355 -11 -25 -36 -79 -55 -120 -19 -41 -41 -88
-48 -105 -7 -16 -27 -61 -44 -98 -18 -38 -50 -110 -73 -160 -22 -51 -52 -117
-65 -147 -14 -30 -33 -73 -43 -95 -10 -22 -31 -67 -46 -100 -15 -33 -42 -92
-60 -132 -77 -167 -113 -261 -119 -318 -3 -32 -8 -62 -10 -65 -1 -3 -6 -36
-10 -75 -4 -38 -8 -72 -10 -76 -2 -3 -7 -34 -10 -69 -3 -35 -8 -66 -10 -69 -5
-9 -18 -162 -17 -206 1 -65 8 -104 42 -235 17 -69 34 -135 36 -146 10 -55 57
-202 72 -229 24 -43 128 -92 237 -113 41 -8 263 -7 355 1 69 6 173 19 275 33
22 3 54 8 70 10 39 5 173 24 205 30 45 7 294 53 320 59 14 3 41 8 60 11 53 9
458 99 600 133 69 16 193 46 275 66 83 20 158 38 167 40 16 3 299 172 708 423
157 96 353 211 450 265 149 82 427 172 870 282 101 25 198 48 215 51 16 3 48
9 70 14 52 12 84 17 175 30 96 14 195 23 470 45 101 8 525 15 553 9 23 -5 25
-9 15 -21 -36 -44 -429 -282 -1343 -815 -231 -135 -443 -259 -471 -275 -27
-17 -70 -41 -95 -55 -24 -14 -96 -56 -159 -93 -63 -37 -135 -79 -160 -93 -25
-14 -168 -97 -319 -184 l-273 -159 -227 -224 c-237 -234 -347 -343 -910 -893
-526 -516 -780 -762 -1041 -1009 -184 -174 -212 -198 -279 -243 -67 -45 -114
-68 -225 -112 -32 -12 -65 -33 -73 -45 -13 -19 -33 -92 -47 -167 -3 -14 -7
-34 -10 -44 -3 -9 -7 -28 -10 -42 -8 -43 -26 -134 -31 -160 -3 -14 -7 -38 -10
-55 -3 -16 -8 -41 -10 -55 -3 -14 -8 -36 -10 -50 -20 -97 -28 -62 88 -360 308
-791 387 -991 397 -1015 5 -11 23 -54 39 -95 16 -41 43 -101 60 -132 17 -32
44 -82 59 -110 43 -79 182 -322 292 -508 54 -91 107 -181 118 -200 23 -42 422
-713 466 -785 17 -28 36 -59 43 -70 51 -89 508 -842 634 -1045 59 -96 128
-209 154 -250 46 -75 177 -284 296 -475 35 -55 102 -161 150 -235 48 -74 121
-187 162 -250 88 -136 275 -423 395 -605 192 -292 694 -1045 746 -1120 31 -44
56 -76 56 -71 0 50 -404 1318 -532 1671 -89 244 -376 959 -438 1090 -5 11 -48
112 -96 225 -85 203 -97 232 -127 300 -21 48 -525 1227 -659 1540 -60 140
-113 264 -118 275 -7 16 -156 364 -235 550 -7 17 -20 47 -30 68 -9 21 -41 96
-70 165 -29 70 -112 269 -185 442 -160 382 -256 630 -271 700 -9 42 -8 58 2
79 37 70 321 443 677 889 188 235 181 226 345 426 146 178 193 234 272 326
183 212 171 200 390 436 194 210 486 516 795 834 41 43 113 117 159 165 l84
88 166 59 c560 200 900 305 947 294 50 -13 55 -100 10 -159 -15 -19 -57 -61
-93 -93 -37 -33 -88 -77 -113 -99 -25 -22 -90 -76 -145 -120 -55 -44 -102 -82
-105 -86 -3 -3 -52 -43 -110 -90 -58 -46 -107 -86 -110 -89 -3 -3 -39 -32 -80
-65 -41 -32 -80 -64 -86 -70 -6 -5 -88 -71 -182 -145 l-170 -135 -41 -85 c-63
-135 -108 -235 -168 -375 -30 -71 -63 -148 -73 -170 -10 -22 -41 -96 -70 -165
-52 -124 -83 -196 -100 -235 -14 -31 -299 -721 -321 -778 -11 -28 -29 -70 -40
-93 -10 -24 -19 -46 -19 -49 0 -6 -41 -106 -70 -170 -5 -11 -61 -148 -125
-305 -135 -332 -252 -616 -265 -645 -40 -90 -74 -184 -74 -210 1 -44 14 -329
29 -590 2 -44 7 -138 10 -210 10 -228 12 -235 76 -393 34 -81 81 -196 106
-257 24 -60 51 -123 58 -140 7 -16 38 -91 68 -165 131 -320 419 -1019 437
-1060 11 -25 121 -292 246 -595 124 -302 283 -689 354 -860 70 -170 212 -515
315 -765 102 -250 193 -468 200 -485 16 -36 130 -310 157 -380 11 -27 48 -117
83 -200 34 -82 88 -213 120 -290 181 -439 210 -503 246 -550 40 -53 305 -324
454 -464 105 -100 276 -246 306 -261 38 -21 41 -36 -60 318 -25 87 -128 434
-146 492 -8 25 -56 180 -106 345 -164 542 -226 745 -339 1110 -62 198 -120
387 -130 420 -26 87 -251 809 -317 1015 -30 96 -65 209 -78 250 -20 66 -47
151 -150 480 -13 41 -45 140 -70 220 -26 80 -55 172 -65 205 -22 71 -63 202
-120 380 -23 72 -45 144 -50 160 -5 17 -19 64 -33 105 -14 41 -50 154 -81 250
-60 191 -57 162 -71 565 -2 77 -7 208 -10 290 -3 83 -7 213 -10 290 -3 77 -7
183 -9 235 -4 93 -2 105 90 480 52 212 103 419 114 460 23 89 43 170 75 300
13 52 46 187 75 300 28 113 53 212 55 220 5 26 296 1194 301 1211 4 15 352
369 575 585 258 249 450 406 699 571 119 78 159 94 228 92 77 -3 135 -31 199
-95 62 -62 64 -72 27 -181 -30 -89 -110 -308 -124 -338 -5 -11 -41 -105 -81
-210 -39 -104 -98 -259 -130 -342 l-59 -153 5 -222 c2 -123 7 -383 10 -578 9
-511 13 -672 19 -695 7 -28 37 -178 85 -414 23 -112 43 -206 45 -210 3 -4 7
-27 11 -51 3 -25 15 -85 26 -133 11 -48 22 -105 25 -125 3 -20 8 -40 10 -43 2
-3 5 -19 8 -35 3 -16 22 -105 41 -199 20 -93 40 -190 45 -215 18 -93 82 -390
112 -520 40 -174 109 -335 268 -625 15 -27 45 -81 66 -120 20 -38 49 -90 64
-115 14 -25 29 -52 33 -60 8 -17 19 -36 152 -265 54 -93 105 -183 114 -200 9
-16 19 -31 24 -33 4 -2 7 -8 7 -13 0 -7 170 -300 404 -697 34 -57 69 -118 80
-135 10 -18 43 -75 74 -127 31 -52 61 -103 67 -112 251 -425 506 -828 524
-828 36 0 225 209 410 454 71 93 241 341 241 351 0 1 26 43 59 91 32 49 83
127 113 174 62 96 118 160 141 160 26 0 90 -89 283 -395 119 -186 215 -323
323 -455 92 -112 127 -151 298 -329 45 -48 93 -99 108 -116 l26 -30 19 25 c11
14 20 29 20 33 0 5 17 39 39 75 21 37 52 92 68 122 16 30 53 96 80 145 28 50
62 111 77 138 14 26 38 68 52 95 15 26 40 72 57 102 64 118 158 286 167 300 6
8 13 22 17 30 4 8 46 85 93 170 85 153 135 243 193 350 17 30 47 85 68 122 22
36 39 69 39 71 0 2 24 47 53 98 29 52 75 135 101 184 27 50 68 126 92 170 243
451 424 826 535 1110 22 55 44 109 49 120 5 11 37 92 71 180 72 188 108 303
124 394 3 19 8 37 10 40 2 4 6 35 10 71 3 35 8 67 10 70 2 3 6 32 9 65 7 69
15 137 21 180 2 17 7 57 10 90 3 33 8 71 10 85 2 14 7 54 10 90 4 36 8 83 10
105 3 22 7 67 10 100 3 33 8 76 10 95 4 32 9 81 21 215 2 28 6 70 9 95 2 25 7
86 10 135 4 50 8 101 10 115 2 14 7 70 10 125 4 55 8 118 10 140 15 184 19
296 20 460 0 209 -9 307 -40 425 -1 3 -5 28 -10 55 -4 28 -9 57 -11 65 -2 8
-17 78 -33 155 -76 364 -144 601 -233 815 -36 85 -48 128 -52 181 -2 24 2 56
10 70 23 46 154 119 213 119 68 0 143 -44 242 -143 63 -63 173 -158 238 -207
19 -14 58 -43 87 -65 29 -22 114 -83 190 -135 222 -153 326 -246 460 -410 16
-19 31 -37 34 -40 3 -3 17 -21 30 -40 13 -19 27 -37 30 -40 34 -31 118 -163
142 -224 34 -88 84 -257 102 -352 2 -11 12 -48 21 -84 9 -36 19 -76 22 -90 2
-14 18 -81 34 -150 17 -69 33 -136 35 -150 3 -14 19 -81 35 -150 36 -150 115
-499 167 -735 38 -170 101 -470 107 -504 3 -19 7 -37 9 -40 2 -3 7 -22 10 -41
3 -19 8 -46 11 -60 3 -14 12 -59 20 -100 8 -41 17 -86 20 -100 3 -14 7 -38 10
-55 3 -16 10 -52 15 -80 20 -103 58 -341 65 -403 3 -26 8 -54 10 -62 4 -15 15
-99 20 -155 2 -16 7 -70 11 -120 5 -49 9 -155 8 -235 0 -160 -8 -199 -116
-565 -27 -93 -61 -208 -75 -255 -13 -47 -40 -139 -60 -205 -19 -66 -38 -133
-42 -150 -5 -16 -13 -46 -20 -65 -6 -19 -45 -152 -87 -295 -41 -143 -111 -384
-155 -535 -45 -151 -92 -311 -104 -355 -13 -44 -51 -174 -85 -290 -34 -115
-66 -223 -70 -240 -5 -16 -36 -122 -70 -235 -57 -189 -99 -330 -120 -405 -13
-46 -55 -188 -90 -305 -17 -58 -38 -125 -45 -150 -7 -25 -36 -121 -65 -215
-28 -93 -53 -177 -55 -185 -4 -15 -163 -545 -303 -1010 -130 -428 -209 -698
-237 -810 -28 -111 -42 -210 -30 -210 7 0 172 130 205 161 8 8 44 39 80 69 36
30 70 60 76 65 6 6 42 37 80 70 37 33 113 100 169 150 55 49 113 101 129 115
19 17 151 273 416 805 213 429 514 1034 669 1344 262 527 285 577 337 740 76
240 141 443 167 521 12 36 22 67 22 70 1 5 29 93 175 550 64 199 191 603 245
780 13 41 49 156 80 255 31 99 58 187 60 195 2 8 15 51 29 95 25 81 89 288
131 425 12 41 46 152 75 245 127 409 117 360 106 550 -23 385 -31 418 -278
1070 -76 200 -313 796 -343 860 -7 17 -22 53 -33 80 -25 64 -228 548 -251 600
-10 22 -49 112 -86 200 -76 179 -360 843 -380 890 -7 17 -32 75 -55 130 -23
55 -53 124 -66 153 -13 29 -24 57 -24 62 0 8 -203 164 -395 304 -413 302 -725
554 -725 586 0 19 59 25 260 25 181 -1 215 -3 293 -24 133 -34 408 -129 438
-151 40 -29 334 -315 749 -730 405 -405 640 -648 908 -940 27 -30 70 -76 94
-101 23 -25 77 -83 118 -129 41 -46 84 -93 95 -104 11 -12 76 -84 144 -161 68
-77 140 -158 160 -180 20 -22 61 -69 91 -104 30 -36 66 -76 79 -90 13 -15 98
-116 190 -226 295 -352 280 -331 261 -389 -9 -29 -66 -271 -77 -325 -2 -14
-13 -56 -23 -95 -11 -39 -21 -82 -24 -96 -2 -14 -20 -88 -40 -165 -20 -78 -38
-150 -40 -160 -15 -71 -106 -353 -164 -510 -57 -153 -247 -589 -422 -970 -69
-150 -153 -336 -222 -490 -44 -99 -91 -205 -105 -235 -20 -43 -168 -376 -276
-620 -8 -19 -27 -62 -42 -94 -14 -33 -92 -208 -172 -390 -140 -320 -159 -363
-208 -471 -66 -147 -146 -341 -165 -400 -7 -22 -16 -44 -20 -50 -13 -19 -119
-340 -186 -565 -88 -301 -92 -312 -108 -369 -7 -27 -16 -53 -19 -58 -3 -5 -8
-20 -11 -34 -2 -13 -25 -96 -51 -184 -205 -695 -299 -1035 -288 -1044 3 -3 8
0 10 7 3 7 11 18 18 25 7 7 73 104 146 214 147 221 259 393 761 1167 57 88
132 205 169 260 36 56 92 143 125 194 32 50 91 141 129 200 39 59 99 153 134
208 36 54 111 169 167 255 55 85 103 160 105 165 2 5 35 56 73 114 205 311
239 366 277 447 23 48 71 149 106 223 36 74 89 185 118 245 29 61 83 173 120
250 37 77 90 187 117 245 28 58 77 161 111 230 33 69 81 170 107 225 70 147
149 312 225 470 95 197 221 462 310 650 23 50 72 151 108 225 35 74 84 176
107 225 23 50 75 160 115 245 40 85 94 200 120 255 79 168 215 465 215 470 0
2 12 30 26 62 96 212 102 249 70 388 -16 68 -110 352 -120 362 -2 2 -51 15
-107 29 -154 37 -199 53 -254 92 -49 35 -182 166 -384 378 -260 273 -1049
1081 -1237 1268 -615 608 -747 729 -913 839 -91 61 -336 207 -347 207 -3 0
-39 20 -82 44 -42 24 -126 69 -187 101 -60 31 -132 70 -160 85 -27 15 -108 58
-180 95 -206 107 -336 176 -390 205 -27 15 -113 60 -190 100 -125 65 -294 154
-540 285 -44 23 -134 70 -200 105 -66 34 -133 70 -150 80 -16 9 -79 43 -140
75 -124 66 -180 100 -189 114 -18 29 73 97 174 131 146 49 256 48 590 -6 82
-13 614 -127 750 -161 14 -3 33 -8 42 -9 9 -2 66 -15 125 -29 59 -14 197 -46
306 -71 l197 -44 283 -188 c155 -103 305 -201 332 -218 28 -17 70 -44 95 -60
109 -69 200 -116 292 -152 116 -46 334 -117 483 -158 151 -41 352 -95 370 -99
49 -11 75 -16 77 -15 2 1 15 -3 30 -9 50 -19 577 -135 708 -155 41 -7 169 -24
221 -31 173 -21 813 -25 901 -6 92 20 130 61 148 164 9 48 12 89 25 287 11
156 24 302 32 345 12 65 6 132 -21 220 -43 146 -169 463 -276 700 -10 22 -36
81 -58 130 -106 239 -353 776 -513 1114 -33 68 -59 125 -59 127 0 1 -30 65
-66 141 -36 76 -97 203 -134 283 -37 80 -94 199 -125 265 -32 66 -72 152 -90
190 -18 39 -58 124 -90 190 -31 66 -70 147 -85 180 -15 33 -60 127 -99 209
-39 82 -71 150 -71 152 0 3 -156 226 -230 329 -48 67 -463 656 -609 865 -25
36 -49 70 -54 75 -7 10 -95 133 -468 665 -231 328 -443 629 -469 665 -12 17
-58 82 -101 145 -86 124 -88 126 -390 370 -207 166 -324 249 -379 268 -40 14
-37 14 -46 1z"/>
</g>
</svg>
